<svg aria-roledescription="class" role="graphics-document document" viewBox="0 0 755.5364990234375 848.666748046875" style="max-width: 755.5364990234375px;" class="classDiagram" xmlns="http://www.w3.org/2000/svg" width="100%" id="mermaidSvgId"><style>#mermaidSvgId{font-family:"trebuchet ms",verdana,arial,sans-serif;font-size:16px;fill:#000000;}#mermaidSvgId .error-icon{fill:#552222;}#mermaidSvgId .error-text{fill:#552222;stroke:#552222;}#mermaidSvgId .edge-thickness-normal{stroke-width:1px;}#mermaidSvgId .edge-thickness-thick{stroke-width:3.5px;}#mermaidSvgId .edge-pattern-solid{stroke-dasharray:0;}#mermaidSvgId .edge-thickness-invisible{stroke-width:0;fill:none;}#mermaidSvgId .edge-pattern-dashed{stroke-dasharray:3;}#mermaidSvgId .edge-pattern-dotted{stroke-dasharray:2;}#mermaidSvgId .marker{fill:#666;stroke:#666;}#mermaidSvgId .marker.cross{stroke:#666;}#mermaidSvgId svg{font-family:"trebuchet ms",verdana,arial,sans-serif;font-size:16px;}#mermaidSvgId p{margin:0;}#mermaidSvgId g.classGroup text{fill:#999;stroke:none;font-family:"trebuchet ms",verdana,arial,sans-serif;font-size:10px;}#mermaidSvgId g.classGroup text .title{font-weight:bolder;}#mermaidSvgId .nodeLabel,#mermaidSvgId .edgeLabel{color:#111111;}#mermaidSvgId .edgeLabel .label rect{fill:#eee;}#mermaidSvgId .label text{fill:#111111;}#mermaidSvgId .labelBkg{background:#eee;}#mermaidSvgId .edgeLabel .label span{background:#eee;}#mermaidSvgId .classTitle{font-weight:bolder;}#mermaidSvgId .node rect,#mermaidSvgId .node circle,#mermaidSvgId .node ellipse,#mermaidSvgId .node polygon,#mermaidSvgId .node path{fill:#eee;stroke:#999;stroke-width:1px;}#mermaidSvgId .divider{stroke:#999;stroke-width:1;}#mermaidSvgId g.clickable{cursor:pointer;}#mermaidSvgId g.classGroup rect{fill:#eee;stroke:#999;}#mermaidSvgId g.classGroup line{stroke:#999;stroke-width:1;}#mermaidSvgId .classLabel .box{stroke:none;stroke-width:0;fill:#eee;opacity:0.5;}#mermaidSvgId .classLabel .label{fill:#999;font-size:10px;}#mermaidSvgId .relation{stroke:#666;stroke-width:1;fill:none;}#mermaidSvgId .dashed-line{stroke-dasharray:3;}#mermaidSvgId .dotted-line{stroke-dasharray:1 2;}#mermaidSvgId #compositionStart,#mermaidSvgId .composition{fill:#666!important;stroke:#666!important;stroke-width:1;}#mermaidSvgId #compositionEnd,#mermaidSvgId .composition{fill:#666!important;stroke:#666!important;stroke-width:1;}#mermaidSvgId #dependencyStart,#mermaidSvgId .dependency{fill:#666!important;stroke:#666!important;stroke-width:1;}#mermaidSvgId #dependencyStart,#mermaidSvgId .dependency{fill:#666!important;stroke:#666!important;stroke-width:1;}#mermaidSvgId #extensionStart,#mermaidSvgId .extension{fill:transparent!important;stroke:#666!important;stroke-width:1;}#mermaidSvgId #extensionEnd,#mermaidSvgId .extension{fill:transparent!important;stroke:#666!important;stroke-width:1;}#mermaidSvgId #aggregationStart,#mermaidSvgId .aggregation{fill:transparent!important;stroke:#666!important;stroke-width:1;}#mermaidSvgId #aggregationEnd,#mermaidSvgId .aggregation{fill:transparent!important;stroke:#666!important;stroke-width:1;}#mermaidSvgId #lollipopStart,#mermaidSvgId .lollipop{fill:#eee!important;stroke:#666!important;stroke-width:1;}#mermaidSvgId #lollipopEnd,#mermaidSvgId .lollipop{fill:#eee!important;stroke:#666!important;stroke-width:1;}#mermaidSvgId .edgeTerminals{font-size:11px;line-height:initial;}#mermaidSvgId .classTitleText{text-anchor:middle;font-size:18px;fill:#000000;}#mermaidSvgId :root{--mermaid-font-family:"trebuchet ms",verdana,arial,sans-serif;}</style><g><defs><marker orient="auto" markerHeight="240" markerWidth="190" refY="7" refX="18" class="marker aggregation class" id="mermaidSvgId_class-aggregationStart"><path d="M 18,7 L9,13 L1,7 L9,1 Z"></path></marker></defs><defs><marker orient="auto" markerHeight="28" markerWidth="20" refY="7" refX="1" class="marker aggregation class" id="mermaidSvgId_class-aggregationEnd"><path d="M 18,7 L9,13 L1,7 L9,1 Z"></path></marker></defs><defs><marker orient="auto" markerHeight="240" markerWidth="190" refY="7" refX="18" class="marker extension class" id="mermaidSvgId_class-extensionStart"><path d="M 1,7 L18,13 V 1 Z"></path></marker></defs><defs><marker orient="auto" markerHeight="28" markerWidth="20" refY="7" refX="1" class="marker extension class" id="mermaidSvgId_class-extensionEnd"><path d="M 1,1 V 13 L18,7 Z"></path></marker></defs><defs><marker orient="auto" markerHeight="240" markerWidth="190" refY="7" refX="18" class="marker composition class" id="mermaidSvgId_class-compositionStart"><path d="M 18,7 L9,13 L1,7 L9,1 Z"></path></marker></defs><defs><marker orient="auto" markerHeight="28" markerWidth="20" refY="7" refX="1" class="marker composition class" id="mermaidSvgId_class-compositionEnd"><path d="M 18,7 L9,13 L1,7 L9,1 Z"></path></marker></defs><defs><marker orient="auto" markerHeight="240" markerWidth="190" refY="7" refX="6" class="marker dependency class" id="mermaidSvgId_class-dependencyStart"><path d="M 5,7 L9,13 L1,7 L9,1 Z"></path></marker></defs><defs><marker orient="auto" markerHeight="28" markerWidth="20" refY="7" refX="13" class="marker dependency class" id="mermaidSvgId_class-dependencyEnd"><path d="M 18,7 L9,13 L14,7 L9,1 Z"></path></marker></defs><defs><marker orient="auto" markerHeight="240" markerWidth="190" refY="7" refX="13" class="marker lollipop class" id="mermaidSvgId_class-lollipopStart"><circle r="6" cy="7" cx="7" fill="transparent" stroke="black"></circle></marker></defs><defs><marker orient="auto" markerHeight="240" markerWidth="190" refY="7" refX="1" class="marker lollipop class" id="mermaidSvgId_class-lollipopEnd"><circle r="6" cy="7" cx="7" fill="transparent" stroke="black"></circle></marker></defs><g class="root"><g class="clusters"></g><g class="edgePaths"><path marker-start="url(#mermaidSvgId_class-dependencyStart)" style=";" class="edge-thickness-normal edge-pattern-solid relation" id="id_User_Appointment_1" d="M285.399,185.071L258.574,201.003C231.75,216.936,178.1,248.801,151.275,270.79C124.451,292.778,124.451,304.889,124.451,310.944L124.451,317"></path><path marker-start="url(#mermaidSvgId_class-dependencyStart)" style=";" class="edge-thickness-normal edge-pattern-solid relation" id="id_Appointment_Service_2" d="M124.451,559.333L124.451,564.389C124.451,569.444,124.451,579.556,130.435,591.054C136.42,602.552,148.39,615.436,154.375,621.879L160.359,628.321"></path><path marker-start="url(#mermaidSvgId_class-dependencyStart)" style=";" class="edge-thickness-normal edge-pattern-solid relation" id="id_Admin_Service_3" d="M391.375,537.667L391.375,546.333C391.375,555,391.375,572.333,385.39,587.442C379.405,602.552,367.436,615.436,361.451,621.879L355.466,628.321"></path><path marker-start="url(#mermaidSvgId_class-dependencyStart)" style=";" class="edge-thickness-normal edge-pattern-solid relation" id="id_User_Notification_4" d="M483.744,185.071L510.569,201.003C537.394,216.936,591.043,248.801,617.868,276.206C644.693,303.611,644.693,326.556,644.693,338.028L644.693,349.5"></path></g><g class="edgeLabels"><g transform="translate(124.45053100585938, 280.66669178009033)" class="edgeLabel"><g transform="translate(-22.41145896911621, -11.333333015441895)" class="label"><g><rect height="22.666667938232422" width="44.82291793823242" y="-1.3333320617675781" x="-2" style=";display: inline-block" class="background"></rect><text style=";display: inline-block" y="-10.1"><tspan dy="1.1em" y="-0.1em" x="0" class="text-outer-tspan"><tspan font-weight="normal" class="text-inner-tspan" font-style="normal">books</tspan></tspan></text></g></g></g><g transform="translate(124.45053100585938, 589.6667165756226)" class="edgeLabel"><g transform="translate(-39.411460876464844, -11.333333015441895)" class="label"><g><rect height="22.666667938232422" width="78.82292175292969" y="-1.3333320617675781" x="-2" style=";display: inline-block" class="background"></rect><text style=";display: inline-block" y="-10.1"><tspan dy="1.1em" y="-0.1em" x="0" class="text-outer-tspan"><tspan font-weight="normal" class="text-inner-tspan" font-style="normal">associated</tspan></tspan></text></g></g></g><g transform="translate(391.3750228881836, 589.6667165756226)" class="edgeLabel"><g transform="translate(-33.13020706176758, -11.333333015441895)" class="label"><g><rect height="22.666667938232422" width="66.26041793823242" y="-1.3333320617675781" x="-2" style=";display: inline-block" class="background"></rect><text style=";display: inline-block" y="-10.1"><tspan dy="1.1em" y="-0.1em" x="0" class="text-outer-tspan"><tspan font-weight="normal" class="text-inner-tspan" font-style="normal">manages</tspan></tspan></text></g></g></g><g transform="translate(644.6927337646484, 280.66669178009033)" class="edgeLabel"><g transform="translate(-31.69270896911621, -11.333333015441895)" class="label"><g><rect height="22.666667938232422" width="63.38541793823242" y="-1.3333320617675781" x="-2" style=";display: inline-block" class="background"></rect><text style=";display: inline-block" y="-10.1"><tspan dy="1.1em" y="-0.1em" x="0" class="text-outer-tspan"><tspan font-weight="normal" class="text-inner-tspan" font-style="normal">receives</tspan></tspan></text></g></g></g><g transform="translate(267.8518157852943, 178.04652658946003)" class="edgeTerminals"><g transform="translate(-9.256673812866211, -6.333333492279053)" class="inner"><text style=";display: inline-block"><tspan class="row" x="0" dy="1em" xml:space="preserve">1..*</tspan></text></g></g><g transform="translate(109.4505305029297, 570.8333813490077)" class="edgeTerminals"><g transform="translate(-2.8854167461395264, -6.333333492279053)" class="inner"><text style=";display: inline-block"><tspan class="row" x="0" dy="1em" xml:space="preserve">1</tspan></text></g></g><g transform="translate(376.37502144409183, 549.1667096658324)" class="edgeTerminals"><g transform="translate(-2.8854167461395264, -6.333333492279053)" class="inner"><text style=";display: inline-block"><tspan class="row" x="0" dy="1em" xml:space="preserve">1</tspan></text></g></g><g transform="translate(485.97139439202647, 203.8398590679554)" class="edgeTerminals"><g transform="translate(-2.8854167461395264, -6.333333492279053)" class="inner"><text style=";display: inline-block"><tspan class="row" x="0" dy="1em" xml:space="preserve">1</tspan></text></g></g><g transform="translate(134.4505305029297, 294.50002196668356)" class="edgeTerminals"><g transform="translate(-9.256673812866211, -6.333333492279053)" class="inner"></g><text style=";display: inline-block"><tspan class="row" x="0" dy="1em" xml:space="preserve">1..*</tspan></text></g><g transform="translate(154.43844808510843, 600.2906808991328)" class="edgeTerminals"><g transform="translate(-2.8854167461395264, -6.333333492279053)" class="inner"></g><text style=";display: inline-block"><tspan class="row" x="0" dy="1em" xml:space="preserve">1</tspan></text></g><g transform="translate(373.36652442021625, 620.7089342994909)" class="edgeTerminals"><g transform="translate(-2.3333334922790527, -6.333333492279053)" class="inner"></g><text style=";display: inline-block"><tspan class="row" x="0" dy="1em" xml:space="preserve">*</tspan></text></g><g transform="translate(654.6927318823241, 327.0000295990427)" class="edgeTerminals"><g transform="translate(-2.3333334922790527, -6.333333492279053)" class="inner"></g><text style=";display: inline-block"><tspan class="row" x="0" dy="1em" xml:space="preserve">*</tspan></text></g></g><g class="nodes"><g transform="translate(384.5716323852539, 126.16667938232422)" id="classId-User-137" class="node default"><g class="basic label-container"><path style="" fill="#eee" stroke-width="0" stroke="none" d="M-94.01367950439453 -118.16667938232422 L94.01367950439453 -118.16667938232422 L94.01367950439453 118.16667938232422 L-94.01367950439453 118.16667938232422"></path><path style="" fill="none" stroke-width="1.3" stroke="#999" d="M-94.01367950439453 -118.16667938232422 C-50.900331385810205 -118.16667938232422, -7.786983267225878 -118.16667938232422, 94.01367950439453 -118.16667938232422 M-94.01367950439453 -118.16667938232422 C-21.006880529137874 -118.16667938232422, 51.999918446118784 -118.16667938232422, 94.01367950439453 -118.16667938232422 M94.01367950439453 -118.16667938232422 C94.01367950439453 -28.980080337969156, 94.01367950439453 60.20651870638591, 94.01367950439453 118.16667938232422 M94.01367950439453 -118.16667938232422 C94.01367950439453 -62.83844131663966, 94.01367950439453 -7.510203250955101, 94.01367950439453 118.16667938232422 M94.01367950439453 118.16667938232422 C45.339949923743326 118.16667938232422, -3.333779656907879 118.16667938232422, -94.01367950439453 118.16667938232422 M94.01367950439453 118.16667938232422 C35.51633691746186 118.16667938232422, -22.981005669470818 118.16667938232422, -94.01367950439453 118.16667938232422 M-94.01367950439453 118.16667938232422 C-94.01367950439453 66.80096155706767, -94.01367950439453 15.435243731811099, -94.01367950439453 -118.16667938232422 M-94.01367950439453 118.16667938232422 C-94.01367950439453 59.47704779566362, -94.01367950439453 0.7874162090030268, -94.01367950439453 -118.16667938232422"></path></g><g transform="translate(0, -98.16667938232422)" class="annotation-group text"></g><g transform="translate(-17.131511688232422, -98.16667938232422)" class="label-group text"><g transform="translate(0,-9.333333969116211)" style="font-weight: bolder" class="label"><g><rect style="stroke: none" class="background"></rect><text style="" y="-10.1"><tspan font-weight="" dy="1.1em" y="-0.1em" x="0" class="text-outer-tspan"><tspan font-weight="" class="text-inner-tspan" font-style="normal">User</tspan></tspan></text></g></g></g><g transform="translate(-82.01367950439453, -55.5000114440918)" class="members-group text"><g transform="translate(0,-9.333333969116211)" style="" class="label"><g><rect style="stroke: none" class="background"></rect><text style="" y="-10.1"><tspan dy="1.1em" y="-0.1em" x="0" class="text-outer-tspan"><tspan font-weight="normal" class="text-inner-tspan" font-style="normal">-int</tspan><tspan font-weight="normal" class="text-inner-tspan" font-style="normal"> userId</tspan></tspan></text></g></g><g transform="translate(0,12.333333969116211)" style="" class="label"><g><rect style="stroke: none" class="background"></rect><text style="" y="-10.1"><tspan dy="1.1em" y="-0.1em" x="0" class="text-outer-tspan"><tspan font-weight="normal" class="text-inner-tspan" font-style="normal">-String</tspan><tspan font-weight="normal" class="text-inner-tspan" font-style="normal"> name</tspan></tspan></text></g></g><g transform="translate(0,34.00000190734863)" style="" class="label"><g><rect style="stroke: none" class="background"></rect><text style="" y="-10.1"><tspan dy="1.1em" y="-0.1em" x="0" class="text-outer-tspan"><tspan font-weight="normal" class="text-inner-tspan" font-style="normal">-String</tspan><tspan font-weight="normal" class="text-inner-tspan" font-style="normal"> email</tspan></tspan></text></g></g><g transform="translate(0,55.666669845581055)" style="" class="label"><g><rect style="stroke: none" class="background"></rect><text style="" y="-10.1"><tspan dy="1.1em" y="-0.1em" x="0" class="text-outer-tspan"><tspan font-weight="normal" class="text-inner-tspan" font-style="normal">-String</tspan><tspan font-weight="normal" class="text-inner-tspan" font-style="normal"> phone</tspan></tspan></text></g></g></g><g transform="translate(-82.01367950439453, 52.16666030883789)" class="methods-group text"><g transform="translate(0,-9.333333969116211)" style="" class="label"><g><rect style="stroke: none" class="background"></rect><text style="" y="-10.1"><tspan dy="1.1em" y="-0.1em" x="0" class="text-outer-tspan"><tspan font-weight="normal" class="text-inner-tspan" font-style="normal">+register()</tspan></tspan></text></g></g><g transform="translate(0,12.333333969116211)" style="" class="label"><g><rect style="stroke: none" class="background"></rect><text style="" y="-10.1"><tspan dy="1.1em" y="-0.1em" x="0" class="text-outer-tspan"><tspan font-weight="normal" class="text-inner-tspan" font-style="normal">+login()</tspan></tspan></text></g></g><g transform="translate(0,34.00000190734863)" style="" class="label"><g><rect style="stroke: none" class="background"></rect><text style="" y="-10.1"><tspan dy="1.1em" y="-0.1em" x="0" class="text-outer-tspan"><tspan font-weight="normal" class="text-inner-tspan" font-style="normal">+bookAppointment()</tspan></tspan></text></g></g></g><g style="" class="divider"><path style="" fill="none" stroke-width="1.3" stroke="#999" d="M-94.01367950439453 -75.5000114440918 C-24.864531893930277 -75.5000114440918, 44.28461571653398 -75.5000114440918, 94.01367950439453 -75.5000114440918 M-94.01367950439453 -75.5000114440918 C-30.213417219724427 -75.5000114440918, 33.58684506494568 -75.5000114440918, 94.01367950439453 -75.5000114440918"></path></g><g style="" class="divider"><path style="" fill="none" stroke-width="1.3" stroke="#999" d="M-94.01367950439453 32.16666030883789 C-48.68326884493952 32.16666030883789, -3.352858185484507 32.16666030883789, 94.01367950439453 32.16666030883789 M-94.01367950439453 32.16666030883789 C-42.3579449806897 32.16666030883789, 9.297789543015128 32.16666030883789, 94.01367950439453 32.16666030883789"></path></g></g><g transform="translate(124.45053100585938, 435.16670417785645)" id="classId-Appointment-138" class="node default"><g class="basic label-container"><path style="" fill="#eee" stroke-width="0" stroke="none" d="M-116.45053100585938 -118.16667938232422 L116.45053100585938 -118.16667938232422 L116.45053100585938 118.16667938232422 L-116.45053100585938 118.16667938232422"></path><path style="" fill="none" stroke-width="1.3" stroke="#999" d="M-116.45053100585938 -118.16667938232422 C-39.5524663378725 -118.16667938232422, 37.34559833011437 -118.16667938232422, 116.45053100585938 -118.16667938232422 M-116.45053100585938 -118.16667938232422 C-33.207323326699765 -118.16667938232422, 50.035884352459846 -118.16667938232422, 116.45053100585938 -118.16667938232422 M116.45053100585938 -118.16667938232422 C116.45053100585938 -65.81979709208696, 116.45053100585938 -13.472914801849683, 116.45053100585938 118.16667938232422 M116.45053100585938 -118.16667938232422 C116.45053100585938 -35.29172014547727, 116.45053100585938 47.58323909136968, 116.45053100585938 118.16667938232422 M116.45053100585938 118.16667938232422 C23.696276380751897 118.16667938232422, -69.05797824435558 118.16667938232422, -116.45053100585938 118.16667938232422 M116.45053100585938 118.16667938232422 C43.09745952686798 118.16667938232422, -30.255611952123417 118.16667938232422, -116.45053100585938 118.16667938232422 M-116.45053100585938 118.16667938232422 C-116.45053100585938 39.49988272973201, -116.45053100585938 -39.1669139228602, -116.45053100585938 -118.16667938232422 M-116.45053100585938 118.16667938232422 C-116.45053100585938 34.77219873921604, -116.45053100585938 -48.622281903892144, -116.45053100585938 -118.16667938232422"></path></g><g transform="translate(0, -98.16667938232422)" class="annotation-group text"></g><g transform="translate(-49.05729293823242, -98.16667938232422)" class="label-group text"><g transform="translate(0,-9.333333969116211)" style="font-weight: bolder" class="label"><g><rect style="stroke: none" class="background"></rect><text style="" y="-10.1"><tspan font-weight="" dy="1.1em" y="-0.1em" x="0" class="text-outer-tspan"><tspan font-weight="" class="text-inner-tspan" font-style="normal">Appointment</tspan></tspan></text></g></g></g><g transform="translate(-104.45053100585938, -55.5000114440918)" class="members-group text"><g transform="translate(0,-9.333333969116211)" style="" class="label"><g><rect style="stroke: none" class="background"></rect><text style="" y="-10.1"><tspan dy="1.1em" y="-0.1em" x="0" class="text-outer-tspan"><tspan font-weight="normal" class="text-inner-tspan" font-style="normal">-int</tspan><tspan font-weight="normal" class="text-inner-tspan" font-style="normal"> appointmentId</tspan></tspan></text></g></g><g transform="translate(0,12.333333969116211)" style="" class="label"><g><rect style="stroke: none" class="background"></rect><text style="" y="-10.1"><tspan dy="1.1em" y="-0.1em" x="0" class="text-outer-tspan"><tspan font-weight="normal" class="text-inner-tspan" font-style="normal">-Date</tspan><tspan font-weight="normal" class="text-inner-tspan" font-style="normal"> date</tspan></tspan></text></g></g><g transform="translate(0,34.00000190734863)" style="" class="label"><g><rect style="stroke: none" class="background"></rect><text style="" y="-10.1"><tspan dy="1.1em" y="-0.1em" x="0" class="text-outer-tspan"><tspan font-weight="normal" class="text-inner-tspan" font-style="normal">-Time</tspan><tspan font-weight="normal" class="text-inner-tspan" font-style="normal"> time</tspan></tspan></text></g></g><g transform="translate(0,55.666669845581055)" style="" class="label"><g><rect style="stroke: none" class="background"></rect><text style="" y="-10.1"><tspan dy="1.1em" y="-0.1em" x="0" class="text-outer-tspan"><tspan font-weight="normal" class="text-inner-tspan" font-style="normal">-String</tspan><tspan font-weight="normal" class="text-inner-tspan" font-style="normal"> status</tspan></tspan></text></g></g></g><g transform="translate(-104.45053100585938, 52.16666030883789)" class="methods-group text"><g transform="translate(0,-9.333333969116211)" style="" class="label"><g><rect style="stroke: none" class="background"></rect><text style="" y="-10.1"><tspan dy="1.1em" y="-0.1em" x="0" class="text-outer-tspan"><tspan font-weight="normal" class="text-inner-tspan" font-style="normal">+checkAvailability()</tspan></tspan></text></g></g><g transform="translate(0,12.333333969116211)" style="" class="label"><g><rect style="stroke: none" class="background"></rect><text style="" y="-10.1"><tspan dy="1.1em" y="-0.1em" x="0" class="text-outer-tspan"><tspan font-weight="normal" class="text-inner-tspan" font-style="normal">+reserveSlot()</tspan></tspan></text></g></g><g transform="translate(0,34.00000190734863)" style="" class="label"><g><rect style="stroke: none" class="background"></rect><text style="" y="-10.1"><tspan dy="1.1em" y="-0.1em" x="0" class="text-outer-tspan"><tspan font-weight="normal" class="text-inner-tspan" font-style="normal">+cancelAppointment()</tspan></tspan></text></g></g></g><g style="" class="divider"><path style="" fill="none" stroke-width="1.3" stroke="#999" d="M-116.45053100585938 -75.5000114440918 C-33.942822665509595 -75.5000114440918, 48.564885674840184 -75.5000114440918, 116.45053100585938 -75.5000114440918 M-116.45053100585938 -75.5000114440918 C-45.20936121794469 -75.5000114440918, 26.031808569969996 -75.5000114440918, 116.45053100585938 -75.5000114440918"></path></g><g style="" class="divider"><path style="" fill="none" stroke-width="1.3" stroke="#999" d="M-116.45053100585938 32.16666030883789 C-33.30495921794832 32.16666030883789, 49.84061256996273 32.16666030883789, 116.45053100585938 32.16666030883789 M-116.45053100585938 32.16666030883789 C-50.36849360211919 32.16666030883789, 15.713543801621 32.16666030883789, 116.45053100585938 32.16666030883789"></path></g></g><g transform="translate(257.9127769470215, 733.3333854675293)" id="classId-Service-139" class="node default"><g class="basic label-container"><path style="" fill="#eee" stroke-width="0" stroke="none" d="M-97.55339050292969 -107.33333587646484 L97.55339050292969 -107.33333587646484 L97.55339050292969 107.33333587646484 L-97.55339050292969 107.33333587646484"></path><path style="" fill="none" stroke-width="1.3" stroke="#999" d="M-97.55339050292969 -107.33333587646484 C-46.58796741729508 -107.33333587646484, 4.377455668339522 -107.33333587646484, 97.55339050292969 -107.33333587646484 M-97.55339050292969 -107.33333587646484 C-23.146163091544906 -107.33333587646484, 51.261064319839875 -107.33333587646484, 97.55339050292969 -107.33333587646484 M97.55339050292969 -107.33333587646484 C97.55339050292969 -36.08645316459622, 97.55339050292969 35.1604295472724, 97.55339050292969 107.33333587646484 M97.55339050292969 -107.33333587646484 C97.55339050292969 -50.84049161824554, 97.55339050292969 5.6523526399737705, 97.55339050292969 107.33333587646484 M97.55339050292969 107.33333587646484 C57.4806233345613 107.33333587646484, 17.407856166192914 107.33333587646484, -97.55339050292969 107.33333587646484 M97.55339050292969 107.33333587646484 C58.05259738316688 107.33333587646484, 18.551804263404065 107.33333587646484, -97.55339050292969 107.33333587646484 M-97.55339050292969 107.33333587646484 C-97.55339050292969 27.18267821800646, -97.55339050292969 -52.96797944045193, -97.55339050292969 -107.33333587646484 M-97.55339050292969 107.33333587646484 C-97.55339050292969 21.67335386059085, -97.55339050292969 -63.98662815528314, -97.55339050292969 -107.33333587646484"></path></g><g transform="translate(0, -87.33333587646484)" class="annotation-group text"></g><g transform="translate(-27.721355438232422, -87.33333587646484)" class="label-group text"><g transform="translate(0,-9.333333969116211)" style="font-weight: bolder" class="label"><g><rect style="stroke: none" class="background"></rect><text style="" y="-10.1"><tspan font-weight="" dy="1.1em" y="-0.1em" x="0" class="text-outer-tspan"><tspan font-weight="" class="text-inner-tspan" font-style="normal">Service</tspan></tspan></text></g></g></g><g transform="translate(-85.55339050292969, -44.66666793823242)" class="members-group text"><g transform="translate(0,-9.333333969116211)" style="" class="label"><g><rect style="stroke: none" class="background"></rect><text style="" y="-10.1"><tspan dy="1.1em" y="-0.1em" x="0" class="text-outer-tspan"><tspan font-weight="normal" class="text-inner-tspan" font-style="normal">-int</tspan><tspan font-weight="normal" class="text-inner-tspan" font-style="normal"> serviceId</tspan></tspan></text></g></g><g transform="translate(0,12.333333969116211)" style="" class="label"><g><rect style="stroke: none" class="background"></rect><text style="" y="-10.1"><tspan dy="1.1em" y="-0.1em" x="0" class="text-outer-tspan"><tspan font-weight="normal" class="text-inner-tspan" font-style="normal">-String</tspan><tspan font-weight="normal" class="text-inner-tspan" font-style="normal"> serviceName</tspan></tspan></text></g></g><g transform="translate(0,34.00000190734863)" style="" class="label"><g><rect style="stroke: none" class="background"></rect><text style="" y="-10.1"><tspan dy="1.1em" y="-0.1em" x="0" class="text-outer-tspan"><tspan font-weight="normal" class="text-inner-tspan" font-style="normal">-int</tspan><tspan font-weight="normal" class="text-inner-tspan" font-style="normal"> duration</tspan></tspan></text></g></g><g transform="translate(0,55.666669845581055)" style="" class="label"><g><rect style="stroke: none" class="background"></rect><text style="" y="-10.1"><tspan dy="1.1em" y="-0.1em" x="0" class="text-outer-tspan"><tspan font-weight="normal" class="text-inner-tspan" font-style="normal">-double</tspan><tspan font-weight="normal" class="text-inner-tspan" font-style="normal"> price</tspan></tspan></text></g></g></g><g transform="translate(-85.55339050292969, 63.000003814697266)" class="methods-group text"><g transform="translate(0,-9.333333969116211)" style="" class="label"><g><rect style="stroke: none" class="background"></rect><text style="" y="-10.1"><tspan dy="1.1em" y="-0.1em" x="0" class="text-outer-tspan"><tspan font-weight="normal" class="text-inner-tspan" font-style="normal">+getServices()</tspan></tspan></text></g></g><g transform="translate(0,12.333333969116211)" style="" class="label"><g><rect style="stroke: none" class="background"></rect><text style="" y="-10.1"><tspan dy="1.1em" y="-0.1em" x="0" class="text-outer-tspan"><tspan font-weight="normal" class="text-inner-tspan" font-style="normal">+addService()</tspan></tspan></text></g></g></g><g style="" class="divider"><path style="" fill="none" stroke-width="1.3" stroke="#999" d="M-97.55339050292969 -64.66666793823242 C-39.28031194501174 -64.66666793823242, 18.99276661290621 -64.66666793823242, 97.55339050292969 -64.66666793823242 M-97.55339050292969 -64.66666793823242 C-45.73335177106616 -64.66666793823242, 6.0866869607973655 -64.66666793823242, 97.55339050292969 -64.66666793823242"></path></g><g style="" class="divider"><path style="" fill="none" stroke-width="1.3" stroke="#999" d="M-97.55339050292969 43.000003814697266 C-37.98396883185863 43.000003814697266, 21.585452839212422 43.000003814697266, 97.55339050292969 43.000003814697266 M-97.55339050292969 43.000003814697266 C-53.007455390382624 43.000003814697266, -8.461520277835561 43.000003814697266, 97.55339050292969 43.000003814697266"></path></g></g><g transform="translate(391.3750228881836, 435.16670417785645)" id="classId-Admin-140" class="node default"><g class="basic label-container"><path style="" fill="#eee" stroke-width="0" stroke="none" d="M-100.47396087646484 -96.50000762939453 L100.47396087646484 -96.50000762939453 L100.47396087646484 96.50000762939453 L-100.47396087646484 96.50000762939453"></path><path style="" fill="none" stroke-width="1.3" stroke="#999" d="M-100.47396087646484 -96.50000762939453 C-45.67686831267849 -96.50000762939453, 9.12022425110787 -96.50000762939453, 100.47396087646484 -96.50000762939453 M-100.47396087646484 -96.50000762939453 C-39.92819280111551 -96.50000762939453, 20.61757527423383 -96.50000762939453, 100.47396087646484 -96.50000762939453 M100.47396087646484 -96.50000762939453 C100.47396087646484 -26.715379085738462, 100.47396087646484 43.06924945791761, 100.47396087646484 96.50000762939453 M100.47396087646484 -96.50000762939453 C100.47396087646484 -36.827772011516316, 100.47396087646484 22.8444636063619, 100.47396087646484 96.50000762939453 M100.47396087646484 96.50000762939453 C48.76436188276858 96.50000762939453, -2.9452371109276783 96.50000762939453, -100.47396087646484 96.50000762939453 M100.47396087646484 96.50000762939453 C35.60407415855185 96.50000762939453, -29.265812559361137 96.50000762939453, -100.47396087646484 96.50000762939453 M-100.47396087646484 96.50000762939453 C-100.47396087646484 43.48849887251994, -100.47396087646484 -9.52300988435465, -100.47396087646484 -96.50000762939453 M-100.47396087646484 96.50000762939453 C-100.47396087646484 37.91134401076041, -100.47396087646484 -20.677319607873713, -100.47396087646484 -96.50000762939453"></path></g><g transform="translate(0, -76.50000762939453)" class="annotation-group text"></g><g transform="translate(-24.03125, -76.50000762939453)" class="label-group text"><g transform="translate(0,-9.333333969116211)" style="font-weight: bolder" class="label"><g><rect style="stroke: none" class="background"></rect><text style="" y="-10.1"><tspan font-weight="" dy="1.1em" y="-0.1em" x="0" class="text-outer-tspan"><tspan font-weight="" class="text-inner-tspan" font-style="normal">Admin</tspan></tspan></text></g></g></g><g transform="translate(-88.47396087646484, -33.83333969116211)" class="members-group text"><g transform="translate(0,-9.333333969116211)" style="" class="label"><g><rect style="stroke: none" class="background"></rect><text style="" y="-10.1"><tspan dy="1.1em" y="-0.1em" x="0" class="text-outer-tspan"><tspan font-weight="normal" class="text-inner-tspan" font-style="normal">-int</tspan><tspan font-weight="normal" class="text-inner-tspan" font-style="normal"> adminId</tspan></tspan></text></g></g><g transform="translate(0,12.333333969116211)" style="" class="label"><g><rect style="stroke: none" class="background"></rect><text style="" y="-10.1"><tspan dy="1.1em" y="-0.1em" x="0" class="text-outer-tspan"><tspan font-weight="normal" class="text-inner-tspan" font-style="normal">-String</tspan><tspan font-weight="normal" class="text-inner-tspan" font-style="normal"> name</tspan></tspan></text></g></g><g transform="translate(0,34.00000190734863)" style="" class="label"><g><rect style="stroke: none" class="background"></rect><text style="" y="-10.1"><tspan dy="1.1em" y="-0.1em" x="0" class="text-outer-tspan"><tspan font-weight="normal" class="text-inner-tspan" font-style="normal">-String</tspan><tspan font-weight="normal" class="text-inner-tspan" font-style="normal"> email</tspan></tspan></text></g></g></g><g transform="translate(-88.47396087646484, 52.16666793823242)" class="methods-group text"><g transform="translate(0,-9.333333969116211)" style="" class="label"><g><rect style="stroke: none" class="background"></rect><text style="" y="-10.1"><tspan dy="1.1em" y="-0.1em" x="0" class="text-outer-tspan"><tspan font-weight="normal" class="text-inner-tspan" font-style="normal">+manageServices()</tspan></tspan></text></g></g><g transform="translate(0,12.333333969116211)" style="" class="label"><g><rect style="stroke: none" class="background"></rect><text style="" y="-10.1"><tspan dy="1.1em" y="-0.1em" x="0" class="text-outer-tspan"><tspan font-weight="normal" class="text-inner-tspan" font-style="normal">+viewAppointments()</tspan></tspan></text></g></g></g><g style="" class="divider"><path style="" fill="none" stroke-width="1.3" stroke="#999" d="M-100.47396087646484 -53.83333969116211 C-47.59718203066557 -53.83333969116211, 5.279596815133701 -53.83333969116211, 100.47396087646484 -53.83333969116211 M-100.47396087646484 -53.83333969116211 C-48.466525136103165 -53.83333969116211, 3.5409106042585137 -53.83333969116211, 100.47396087646484 -53.83333969116211"></path></g><g style="" class="divider"><path style="" fill="none" stroke-width="1.3" stroke="#999" d="M-100.47396087646484 32.16666793823242 C-44.34207854776712 32.16666793823242, 11.789803780930598 32.16666793823242, 100.47396087646484 32.16666793823242 M-100.47396087646484 32.16666793823242 C-21.155967111777173 32.16666793823242, 58.1620266529105 32.16666793823242, 100.47396087646484 32.16666793823242"></path></g></g><g transform="translate(644.6927337646484, 435.16670417785645)" id="classId-Notification-141" class="node default"><g class="basic label-container"><path style="" fill="#eee" stroke-width="0" stroke="none" d="M-102.84375 -85.66667175292969 L102.84375 -85.66667175292969 L102.84375 85.66667175292969 L-102.84375 85.66667175292969"></path><path style="" fill="none" stroke-width="1.3" stroke="#999" d="M-102.84375 -85.66667175292969 C-22.23802024391067 -85.66667175292969, 58.36770951217866 -85.66667175292969, 102.84375 -85.66667175292969 M-102.84375 -85.66667175292969 C-49.86282717979839 -85.66667175292969, 3.118095640403226 -85.66667175292969, 102.84375 -85.66667175292969 M102.84375 -85.66667175292969 C102.84375 -37.63198450078563, 102.84375 10.402702751358433, 102.84375 85.66667175292969 M102.84375 -85.66667175292969 C102.84375 -27.194631873830296, 102.84375 31.277408005269095, 102.84375 85.66667175292969 M102.84375 85.66667175292969 C59.32140667726476 85.66667175292969, 15.799063354529522 85.66667175292969, -102.84375 85.66667175292969 M102.84375 85.66667175292969 C49.312460749212015 85.66667175292969, -4.21882850157597 85.66667175292969, -102.84375 85.66667175292969 M-102.84375 85.66667175292969 C-102.84375 30.36118193129583, -102.84375 -24.944307890338024, -102.84375 -85.66667175292969 M-102.84375 85.66667175292969 C-102.84375 35.43537075376847, -102.84375 -14.795930245392753, -102.84375 -85.66667175292969"></path></g><g transform="translate(0, -65.66667175292969)" class="annotation-group text"></g><g transform="translate(-43.9375, -65.66667175292969)" class="label-group text"><g transform="translate(0,-9.333333969116211)" style="font-weight: bolder" class="label"><g><rect style="stroke: none" class="background"></rect><text style="" y="-10.1"><tspan font-weight="" dy="1.1em" y="-0.1em" x="0" class="text-outer-tspan"><tspan font-weight="" class="text-inner-tspan" font-style="normal">Notification</tspan></tspan></text></g></g></g><g transform="translate(-90.84375, -23.000003814697266)" class="members-group text"><g transform="translate(0,-9.333333969116211)" style="" class="label"><g><rect style="stroke: none" class="background"></rect><text style="" y="-10.1"><tspan dy="1.1em" y="-0.1em" x="0" class="text-outer-tspan"><tspan font-weight="normal" class="text-inner-tspan" font-style="normal">-int</tspan><tspan font-weight="normal" class="text-inner-tspan" font-style="normal"> notificationId</tspan></tspan></text></g></g><g transform="translate(0,12.333333969116211)" style="" class="label"><g><rect style="stroke: none" class="background"></rect><text style="" y="-10.1"><tspan dy="1.1em" y="-0.1em" x="0" class="text-outer-tspan"><tspan font-weight="normal" class="text-inner-tspan" font-style="normal">-String</tspan><tspan font-weight="normal" class="text-inner-tspan" font-style="normal"> message</tspan></tspan></text></g></g><g transform="translate(0,34.00000190734863)" style="" class="label"><g><rect style="stroke: none" class="background"></rect><text style="" y="-10.1"><tspan dy="1.1em" y="-0.1em" x="0" class="text-outer-tspan"><tspan font-weight="normal" class="text-inner-tspan" font-style="normal">-Date</tspan><tspan font-weight="normal" class="text-inner-tspan" font-style="normal"> date</tspan></tspan></text></g></g></g><g transform="translate(-90.84375, 63.000003814697266)" class="methods-group text"><g transform="translate(0,-9.333333969116211)" style="" class="label"><g><rect style="stroke: none" class="background"></rect><text style="" y="-10.1"><tspan dy="1.1em" y="-0.1em" x="0" class="text-outer-tspan"><tspan font-weight="normal" class="text-inner-tspan" font-style="normal">+sendNotification()</tspan></tspan></text></g></g></g><g style="" class="divider"><path style="" fill="none" stroke-width="1.3" stroke="#999" d="M-102.84375 -43.000003814697266 C-55.537610696347045 -43.000003814697266, -8.23147139269409 -43.000003814697266, 102.84375 -43.000003814697266 M-102.84375 -43.000003814697266 C-48.60011481264034 -43.000003814697266, 5.643520374719316 -43.000003814697266, 102.84375 -43.000003814697266"></path></g><g style="" class="divider"><path style="" fill="none" stroke-width="1.3" stroke="#999" d="M-102.84375 43.000003814697266 C-31.362530592679747 43.000003814697266, 40.11868881464051 43.000003814697266, 102.84375 43.000003814697266 M-102.84375 43.000003814697266 C-48.67780694808245 43.000003814697266, 5.488136103835103 43.000003814697266, 102.84375 43.000003814697266"></path></g></g><g transform="translate(635.745475769043, 126.16667938232422)" id="classId-Database-142" class="node default"><g class="basic label-container"><path style="" fill="#eee" stroke-width="0" stroke="none" d="M-107.16016387939453 -90.16667938232422 L107.16016387939453 -90.16667938232422 L107.16016387939453 90.16667938232422 L-107.16016387939453 90.16667938232422"></path><path style="" fill="none" stroke-width="1.3" stroke="#999" d="M-107.16016387939453 -90.16667938232422 C-57.09017515265771 -90.16667938232422, -7.020186425920883 -90.16667938232422, 107.16016387939453 -90.16667938232422 M-107.16016387939453 -90.16667938232422 C-46.32977367689372 -90.16667938232422, 14.500616525607086 -90.16667938232422, 107.16016387939453 -90.16667938232422 M107.16016387939453 -90.16667938232422 C107.16016387939453 -31.08654029212674, 107.16016387939453 27.993598798070735, 107.16016387939453 90.16667938232422 M107.16016387939453 -90.16667938232422 C107.16016387939453 -20.407843332386435, 107.16016387939453 49.35099271755135, 107.16016387939453 90.16667938232422 M107.16016387939453 90.16667938232422 C61.36069817148098 90.16667938232422, 15.561232463567436 90.16667938232422, -107.16016387939453 90.16667938232422 M107.16016387939453 90.16667938232422 C50.42673913039072 90.16667938232422, -6.306685618613088 90.16667938232422, -107.16016387939453 90.16667938232422 M-107.16016387939453 90.16667938232422 C-107.16016387939453 38.526493841275, -107.16016387939453 -13.113691699774222, -107.16016387939453 -90.16667938232422 M-107.16016387939453 90.16667938232422 C-107.16016387939453 30.196114336725522, -107.16016387939453 -29.774450708873175, -107.16016387939453 -90.16667938232422"></path></g><g transform="translate(0, -70.16667938232422)" class="annotation-group text"></g><g transform="translate(-33.86198043823242, -70.16667938232422)" class="label-group text"><g transform="translate(0,-9.333333969116211)" style="font-weight: bolder" class="label"><g><rect style="stroke: none" class="background"></rect><text style="" y="-10.1"><tspan font-weight="" dy="1.1em" y="-0.1em" x="0" class="text-outer-tspan"><tspan font-weight="" class="text-inner-tspan" font-style="normal">Database</tspan></tspan></text></g></g></g><g transform="translate(-95.16016387939453, -27.500011444091797)" class="members-group text"></g><g transform="translate(-95.16016387939453, 2.499988555908203)" class="methods-group text"><g transform="translate(0,-9.333333969116211)" style="" class="label"><g><rect style="stroke: none" class="background"></rect><text style="" y="-10.1"><tspan dy="1.1em" y="-0.1em" x="0" class="text-outer-tspan"><tspan font-weight="normal" class="text-inner-tspan" font-style="normal">+saveUserData()</tspan></tspan></text></g></g><g transform="translate(0,12.333333969116211)" style="" class="label"><g><rect style="stroke: none" class="background"></rect><text style="" y="-10.1"><tspan dy="1.1em" y="-0.1em" x="0" class="text-outer-tspan"><tspan font-weight="normal" class="text-inner-tspan" font-style="normal">+saveAppointment()</tspan></tspan></text></g></g><g transform="translate(0,34.00000190734863)" style="" class="label"><g><rect style="stroke: none" class="background"></rect><text style="" y="-10.1"><tspan dy="1.1em" y="-0.1em" x="0" class="text-outer-tspan"><tspan font-weight="normal" class="text-inner-tspan" font-style="normal">+fetchAvailableSlots()</tspan></tspan></text></g></g><g transform="translate(0,55.666669845581055)" style="" class="label"><g><rect style="stroke: none" class="background"></rect><text style="" y="-10.1"><tspan dy="1.1em" y="-0.1em" x="0" class="text-outer-tspan"><tspan font-weight="normal" class="text-inner-tspan" font-style="normal">+fetchServices()</tspan></tspan></text></g></g></g><g style="" class="divider"><path style="" fill="none" stroke-width="1.3" stroke="#999" d="M-107.16016387939453 -47.5000114440918 C-43.13590806159387 -47.5000114440918, 20.888347756206798 -47.5000114440918, 107.16016387939453 -47.5000114440918 M-107.16016387939453 -47.5000114440918 C-23.914826850709602 -47.5000114440918, 59.33051017797533 -47.5000114440918, 107.16016387939453 -47.5000114440918"></path></g><g style="" class="divider"><path style="" fill="none" stroke-width="1.3" stroke="#999" d="M-107.16016387939453 -23.500011444091797 C-24.687811631491485 -23.500011444091797, 57.78454061641156 -23.500011444091797, 107.16016387939453 -23.500011444091797 M-107.16016387939453 -23.500011444091797 C-61.23184920155293 -23.500011444091797, -15.303534523711335 -23.500011444091797, 107.16016387939453 -23.500011444091797"></path></g></g></g></g></g></svg>